<?xml version="1.0" encoding="UTF-8" standalone="no"?>
<!-- Created with Inkscape (http://www.inkscape.org/) -->

<svg
   xmlns:dc="http://purl.org/dc/elements/1.1/"
   xmlns:cc="http://creativecommons.org/ns#"
   xmlns:rdf="http://www.w3.org/1999/02/22-rdf-syntax-ns#"
   xmlns:svg="http://www.w3.org/2000/svg"
   xmlns="http://www.w3.org/2000/svg"
   xmlns:sodipodi="http://sodipodi.sourceforge.net/DTD/sodipodi-0.dtd"
   xmlns:inkscape="http://www.inkscape.org/namespaces/inkscape"
   width="137.24739"
   height="117.16453"
   id="svg4345"
   version="1.1"
   inkscape:version="0.48.4 r9939"
   sodipodi:docname="New document 17">
  <defs
     id="defs4347" />
  <sodipodi:namedview
     id="base"
     pagecolor="#ffffff"
     bordercolor="#666666"
     borderopacity="1.0"
     inkscape:pageopacity="0.0"
     inkscape:pageshadow="2"
     inkscape:zoom="0.35"
     inkscape:cx="317.92157"
     inkscape:cy="-261.43219"
     inkscape:document-units="px"
     inkscape:current-layer="layer1"
     showgrid="false"
     fit-margin-top="0"
     fit-margin-left="0"
     fit-margin-right="0"
     fit-margin-bottom="0"
     inkscape:window-width="477"
     inkscape:window-height="401"
     inkscape:window-x="500"
     inkscape:window-y="403"
     inkscape:window-maximized="0" />
  <metadata
     id="metadata4350">
    <rdf:RDF>
      <cc:Work
         rdf:about="">
        <dc:format>image/svg+xml</dc:format>
        <dc:type
           rdf:resource="http://purl.org/dc/dcmitype/StillImage" />
        <dc:title></dc:title>
      </cc:Work>
    </rdf:RDF>
  </metadata>
  <g
     inkscape:label="Layer 1"
     inkscape:groupmode="layer"
     id="layer1"
     transform="translate(-57.078429,-153.76546)">
    <g
       transform="matrix(-0.19511,1.2155,-1.2155,-0.19511,1388.1153,330.29699)"
       id="g32290">
      <path
         d="m 89.471,1065.9 c 3.727,6.1 -0.484,10 -6.16,12.9 -8.03,4.1 -27.898,2.1 -34.7,-2 -6.243,-3.8 -9.013,-9.3 -6.041,-14.2"
         inkscape:connector-curvature="0"
         style="fill:#ffffff;stroke:#000000;stroke-width:4.06139994;stroke-linecap:round;stroke-linejoin:round"
         id="path32292" />
      <path
         d="m 21.354,1021 c -0.857,15.7 13.893,40.3 31.364,46.1 9.022,2.9 29.326,3.8 36.494,-1.5 12.278,-9 18.478,-20.7 21.288,-35.1 0.99,-5.1 1.24,-10.9 0.95,-15.7 -1.0243,-19.615 -7.2183,-34.207 -20.606,-31.93 -4.0887,-16.074 -28.906,-12.222 -29.025,0.06 -12.665,-14.242 -31.088,-0.95682 -23.514,16.06 -2.806,2.21 -16.056,5.71 -16.951,22.01 z"
         inkscape:connector-curvature="0"
         style="fill:#ffffff;stroke:#000000;stroke-width:4.06139994;stroke-linecap:round;stroke-linejoin:round"
         id="path32294" />
      <path
         d="m 63.9,983.51 c 3.9293,12.412 2.3553,17.577 2.4826,21.002 -2.2696,-7.8785 -2.6348,-9.9348 -5.6681,-18.124 -0.5176,-1.3926 -1.1975,-2.8019 -2.7174,-4.358 l 6.1176,-0.90089 c 0.04218,-0.30077 -0.35752,1.4647 -0.21472,2.3804 z"
         inkscape:connector-curvature="0"
         style="fill:#000000;stroke-width:5.78100014"
         id="path32296" />
      <path
         d="m 92.465,981.32 c 1.5115,7.49 2.5208,16.87 0.95082,23.069 -0.77062,-4.1308 -3.4725,-14.678 -4.5081,-20.921 -0.01285,0.002 0.01246,0.0116 3.5573,-2.1484 z"
         inkscape:connector-curvature="0"
         style="fill:#000000;stroke-width:5.78100014"
         id="path32298" />
      <path
         d="m 79.642,1058.3 c 4.036,-9.7 3.976,-12.5 5.195,-17.4"
         inkscape:connector-curvature="0"
         style="fill:none;stroke:#000000;stroke-width:4.06139994;stroke-linecap:round;stroke-linejoin:round"
         id="path32300" />
      <path
         d="m 70.26,1059 c 1.693,-11.5 1.425,-17.2 1.856,-24.9"
         inkscape:connector-curvature="0"
         style="fill:none;stroke:#000000;stroke-width:4.06139994;stroke-linecap:round;stroke-linejoin:round"
         id="path32302" />
      <path
         d="m 59.041,1059.5 c 0.098,-8 -0.598,-11.8 -1.048,-16.8"
         inkscape:connector-curvature="0"
         style="fill:none;stroke:#000000;stroke-width:4.06139994;stroke-linecap:round;stroke-linejoin:round"
         id="path32304" />
      <path
         d="m 36.025,998.02 c 3.892,16.78 -1.201,23.38 -4.587,31.88 5.145,-8.8 12.14,-11.8 8.841,-31.41 l -4.254,-0.47 z"
         inkscape:connector-curvature="0"
         style="fill:#000000;stroke-width:5.78100014"
         id="path32306" />
    </g>
  </g>
</svg>
